PathFileType	4	(X/Y/Z)	./resultDataOpenSim/trcMotMarkerGrf/sub10/qtm-14-03.trc
DataRate	CameraRate	NumFrames	NumMarkers	Units	OrigDataRate	OrigDataStartFrame	OrigNumFrames
250.000000	250.000000	13	24	m	250.000000	1	484
Frame#	Time	L.Toe.Tip			R.Toe.Tip			L.Ankle.Lat			R.Ankle.Lat			L.Ankle.Med			R.Ankle.Med			L.Heel			R.Heel			L.Knee.Lat			R.Knee.Lat			L.Knee.Med			R.Knee.Med			L.Thigh.Upper			R.Thigh.Upper			L.ASIS			R.ASIS			V.Sacral			L.Acromium			R.Acromium			C7			L.Elbow			R.Elbow			L.Wrist.Lat			R.Wrist.Lat
		X1	Y1	Z1	X2	Y2	Z2	X3	Y3	Z3	X4	Y4	Z4	X5	Y5	Z5	X6	Y6	Z6	X7	Y7	Z7	X8	Y8	Z8	X9	Y9	Z9	X10	Y10	Z10	X11	Y11	Z11	X12	Y12	Z12	X13	Y13	Z13	X14	Y14	Z14	X15	Y15	Z15	X16	Y16	Z16	X17	Y17	Z17	X18	Y18	Z18	X19	Y19	Z19	X20	Y20	Z20	X21	Y21	Z21	X22	Y22	Z22	X23	Y23	Z23	X24	Y24	Z24

1	0	-1.5909637	0.037466297	-0.17603422	-0.95232437	0.12835073	-0.025337183	-1.7242623	0.068749435	-0.20831406	-1.0837748	0.080176392	0.0083964204	-1.7235404	0.092613906	-0.12289227	-1.0763444	0.11670707	-0.072621553	NaN	NaN	NaN	-1.1134905	0.036292971	-0.041768476	-1.5816826	0.43011175	-0.24717313	-1.2434042	0.45175282	0.037864388	-1.5813134	0.41150732	-0.12706822	-1.234132	0.45451581	-0.092251981	-1.4724691	0.81093803	-0.3111484	-1.4030643	0.83373745	0.068810153	-1.3937341	0.91677561	-0.25230175	-1.3464847	0.93042844	-0.010985655	-1.5655788	0.93233501	-0.09807614	-1.377431	1.37839	-0.28162815	-1.4164586	1.3873221	0.038975772	-1.4816443	1.4200526	-0.13483323	-1.4012961	1.024145	-0.34302893	-1.5760901	1.0729368	0.090576565	-1.2070867	0.93141386	-0.21888928	-1.4486749	0.86938013	0.15335322
2	0.004	-1.5909222	0.037445446	-0.17597331	-0.94106848	0.13036742	-0.026309416	-1.7246033	0.069371564	-0.20751791	-1.0722153	0.081215862	0.0094284184	-1.7207017	0.093578986	-0.12264853	-1.0658871	0.11761673	-0.071815501	NaN	NaN	NaN	-1.1018597	0.036986385	-0.04007442	-1.5781576	0.42959053	-0.2467566	-1.2360416	0.45114683	0.03893627	-1.5777273	0.41075738	-0.12640944	-1.2287553	0.45258708	-0.091183757	-1.4678355	0.81011285	-0.31089721	-1.3964419	0.83196762	0.069063817	-1.3887378	0.91576452	-0.25213622	-1.3404011	0.92925817	-0.010971065	-1.5598642	0.93053196	-0.097318372	-1.3719409	1.376779	-0.2812921	-1.4110337	1.386172	0.039268422	-1.4763901	1.4188048	-0.13485406	-1.3951585	1.0224759	-0.34225557	-1.5717504	1.0719692	0.090240196	-1.2005526	0.93097205	-0.21788051	-1.4452535	0.86828422	0.15373745
3	0.008	-1.5908855	0.037433586	-0.17591778	-0.93022377	0.13214034	-0.027210847	-1.7246562	0.070113203	-0.20682037	-1.0609886	0.082169023	0.010455313	-1.7186517	0.094435474	-0.12232468	-1.0557441	0.11845761	-0.070997092	NaN	NaN	NaN	-1.0905862	0.037644503	-0.038366858	-1.5745798	0.42908446	-0.24632245	-1.2285703	0.45063499	0.039953824	-1.5738297	0.41002542	-0.12582901	-1.2233666	0.45070506	-0.090172903	-1.4632049	0.80932496	-0.3106132	-1.3897188	0.83021496	0.069350754	-1.3837155	0.91475652	-0.25202218	-1.3342849	0.92807037	-0.010951962	-1.5540937	0.92870598	-0.096583956	-1.3663983	1.3751778	-0.28093237	-1.4057317	1.3850422	0.039581667	-1.4711031	1.4175494	-0.13482208	-1.3889699	1.0208316	-0.34146373	-1.5674811	1.0710833	0.089962186	-1.1940337	0.93052432	-0.21687487	-1.4418113	0.8672151	0.15412328
4	0.012	-1.5908526	0.037430278	-0.17587067	-0.91997364	0.13354219	-0.027960338	-1.7243147	0.071019484	-0.2062738	-1.0502771	0.082977793	0.011494007	-1.7173064	0.095232231	-0.12194799	-1.0461326	0.11915456	-0.070158887	NaN	NaN	NaN	-1.0799165	0.038232006	-0.03665869	-1.5709287	0.42860054	-0.2458756	-1.2209448	0.45026278	0.040886146	-1.5696056	0.40932267	-0.12532822	-1.2178923	0.4489136	-0.089244872	-1.458586	0.80857197	-0.31028756	-1.3828569	0.8284985	0.069701988	-1.378642	0.91375203	-0.25196246	-1.3281153	0.92685166	-0.010924401	-1.5482533	0.92685329	-0.095859439	-1.3607693	1.3735978	-0.28053904	-1.4005187	1.3839357	0.039918924	-1.4657585	1.4162991	-0.13471093	-1.3827302	1.0192246	-0.34067278	-1.5632366	1.0702739	0.089748479	-1.187514	0.93006158	-0.21587286	-1.4383224	0.86619491	0.15451116
5	0.016	-1.5908218	0.037428922	-0.17583328	-0.91032816	0.13455538	-0.02849932	-1.723771	0.072037371	-0.20584318	-1.0401497	0.0836111	0.012561215	-1.7161003	0.0960866	-0.12160085	-1.0371126	0.11966286	-0.069285174	NaN	NaN	NaN	-1.0699559	0.038707397	-0.034968202	-1.5672115	0.42812462	-0.24542862	-1.2131966	0.45003249	0.041721336	-1.5652246	0.4086385	-0.12485982	-1.2122577	0.44725533	-0.088395838	-1.4539902	0.8078237	-0.30991824	-1.3758997	0.82684744	0.070138547	-1.3735201	0.91274919	-0.25191861	-1.3219167	0.92559898	-0.010889023	-1.5424373	0.92501491	-0.095083086	-1.3550556	1.3720542	-0.28010573	-1.395279	1.3828535	0.040277073	-1.460357	1.4150765	-0.1345306	-1.3764912	1.0176546	-0.33990728	-1.5589146	1.0694822	0.089561724	-1.1809975	0.92957764	-0.21487693	-1.4347761	0.86523472	0.15489748
6	0.02	-1.5907923	0.037425363	-0.17580515	-0.90124523	0.1352015	-0.028816489	-1.7233108	0.073090014	-0.20544777	-1.0306378	0.08405181	0.013648475	-1.7146569	0.097061854	-0.12134892	-1.0285962	0.1199872	-0.068362708	NaN	NaN	NaN	-1.060698	0.03903742	-0.033344453	-1.5634344	0.42763666	-0.2449858	-1.2053602	0.44993581	0.042459852	-1.5607789	0.4079422	-0.12440491	-1.2064301	0.44577612	-0.087625465	-1.4494076	0.80705992	-0.30948432	-1.3689022	0.82530023	0.070661636	-1.3683652	0.91174133	-0.25186115	-1.3157241	0.924323	-0.010847486	-1.5368762	0.92328721	-0.094143644	-1.3492749	1.370559	-0.27962467	-1.389965	1.3818064	0.040667245	-1.454911	1.4138895	-0.13432251	-1.3702836	1.0161218	-0.33916371	-1.5544826	1.0686983	0.089377073	-1.1745222	0.92906903	-0.21389615	-1.4311809	0.86433358	0.15528032
7	0.024	-1.5907618	0.037421579	-0.17578278	-0.89269619	0.13549935	-0.028929167	-1.7230194	0.074156578	-0.20504063	-1.0217723	0.084291468	0.014733093	-1.7129164	0.098158224	-0.12121458	-1.0204901	0.12013329	-0.067409181	NaN	NaN	NaN	-1.0521003	0.039204919	-0.031840396	-1.5596078	0.42713463	-0.24455121	-1.1974424	0.44996379	0.043100718	-1.5562499	0.40721324	-0.12398174	-1.2003946	0.44452434	-0.086952338	-1.4448157	0.80629146	-0.30895924	-1.3619086	0.82389297	0.071249997	-1.3631797	0.91072181	-0.25179613	-1.309547	0.92303954	-0.010793118	-1.5317846	0.92177627	-0.092943555	-1.3434557	1.3691209	-0.27910396	-1.3845716	1.3808128	0.041110509	-1.44943	1.4127336	-0.13411816	-1.3640969	1.0146345	-0.33842501	-1.5499891	1.0679736	0.089203975	-1.1681451	0.92852666	-0.21294893	-1.4275468	0.86349172	0.15566839
8	0.028	-1.590726	0.037422707	-0.17576151	-0.8846749	0.13546107	-0.02885984	-1.7227128	0.075284716	-0.20464494	-1.0135634	0.0843295	0.015808562	-1.7110092	0.099341317	-0.12116636	-1.012798	0.12007111	-0.066452849	NaN	NaN	NaN	-1.0441187	0.039196287	-0.030419608	-1.5557528	0.42662871	-0.24412922	-1.1894344	0.45010197	0.04362941	-1.5516325	0.40645439	-0.12359284	-1.1941323	0.44353953	-0.086395219	-1.440197	0.8055431	-0.30833693	-1.3549853	0.82264297	0.071864984	-1.3579478	0.90969021	-0.25174544	-1.3033666	0.92175421	-0.010714561	-1.5270488	0.92049967	-0.091519974	-1.337627	1.3677511	-0.27856813	-1.3790145	1.3798851	0.041630996	-1.4439163	1.4116094	-0.13391163	-1.3579121	1.0132033	-0.3376789	-1.5454723	1.0673379	0.089054095	-1.1618935	0.9279434	-0.21204408	-1.423866	0.86271638	0.15607425
9	0.032	-1.5906827	0.037431812	-0.17574073	-0.87718125	0.13509854	-0.028631731	-1.7220126	0.07656386	-0.2043547	-1.0059774	0.084171826	0.016888984	-1.7091229	0.10057325	-0.12115456	-1.0055478	0.11977799	-0.065491622	NaN	NaN	NaN	-1.0367177	0.038999126	-0.028993338	-1.5518708	0.42613528	-0.24372188	-1.1813353	0.45032877	0.044025705	-1.5469892	0.40567761	-0.12321296	-1.1876245	0.44284624	-0.085959088	-1.4355447	0.80482242	-0.30762946	-1.3481763	0.82155863	0.072474134	-1.3526514	0.90865333	-0.25172368	-1.2971594	0.92046872	-0.010611285	-1.5222253	0.91936525	-0.090053693	-1.3317964	1.3664637	-0.27803051	-1.3731868	1.3790202	0.042243376	-1.4383702	1.4105231	-0.13369093	-1.3517298	1.011837	-0.33692729	-1.5409145	1.0667641	0.088922816	-1.1556883	0.92734325	-0.21115924	-1.4201289	0.86201176	0.15649713
10	0.036	-1.5906325	0.037448776	-0.17572591	-0.87020351	0.1344246	-0.02826323	-1.720614	0.078063212	-0.20427357	-0.99894896	0.083831366	0.017984777	-1.7073983	0.10183445	-0.12115727	-0.99869604	0.11927553	-0.06450178	NaN	NaN	NaN	-1.0298771	0.038611534	-0.027545619	-1.547861	0.4256869	-0.24333495	-1.1731695	0.45061805	0.044279466	-1.5423575	0.40489994	-0.12283553	-1.1808427	0.44245324	-0.08564042	-1.430854	0.80411607	-0.30684844	-1.3414307	0.82065213	0.073077149	-1.3472839	0.90762044	-0.25173486	-1.2909144	0.91919487	-0.010494488	-1.5169583	0.91827252	-0.088704924	-1.3259485	1.3652663	-0.27748091	-1.3671502	1.3782022	0.042918872	-1.4327887	1.4094765	-0.13344933	-1.345569	1.0105401	-0.3361831	-1.5362566	1.0662066	0.088812457	-1.1493741	0.92677801	-0.21025869	-1.416334	0.86137232	0.15692594
11	0.04	-1.590577	0.037472166	-0.17572428	-0.86372125	0.13344978	-0.027765101	-1.7186726	0.079753913	-0.20439973	-0.99242257	0.083324043	0.019079493	-1.705879	0.10311791	-0.12117438	-0.99218373	0.11859516	-0.063478857	NaN	NaN	NaN	-1.0235879	0.038046302	-0.026151485	-1.5434634	0.42533137	-0.24296821	-1.1649795	0.45094484	0.044397781	-1.5376802	0.40413912	-0.12249116	-1.1737702	0.44235802	-0.08543501	-1.4261129	0.80341451	-0.30600308	-1.3346551	0.81992473	0.073689839	-1.3418489	0.90659628	-0.25177126	-1.2846193	0.91795134	-0.010368178	-1.5111586	0.91717908	-0.087504157	-1.3200605	1.3641535	-0.27690699	-1.3611498	1.3774164	0.043592097	-1.4271576	1.4084705	-0.13315241	-1.3394439	1.009314	-0.33545205	-1.5314432	1.0656446	0.088745006	-1.1428951	0.92627112	-0.20933482	-1.4124692	0.86078919	0.15735796
12	0.044	-1.5905148	0.037499718	-0.17573892	-0.85771544	0.13217873	-0.027154789	-1.7167665	0.08152154	-0.20460657	-0.98637971	0.082659146	0.020131031	-1.7045195	0.10442785	-0.12120338	-0.98602738	0.11773956	-0.062466739	NaN	NaN	NaN	-1.017834	0.037319642	-0.024841319	-1.5384038	0.42510399	-0.24260906	-1.1567971	0.45128823	0.044404465	-1.5328923	0.40339382	-0.12220737	-1.1664323	0.44254933	-0.085333861	-1.4212999	0.80272779	-0.30510632	-1.3278131	0.81935638	0.074314946	-1.336347	0.90557858	-0.25181067	-1.2782453	0.91675533	-0.010219756	-1.5047378	0.91606363	-0.086412723	-1.314115	1.3631162	-0.27631159	-1.3553756	1.376661	0.044221808	-1.4214595	1.407512	-0.13274546	-1.3333407	1.0081671	-0.33472408	-1.5264837	1.0650912	0.088737108	-1.1363621	0.9257897	-0.20841416	-1.4085103	0.86025625	0.15779945
13	0.048	-1.5904387	0.037529772	-0.17576856	-0.85216269	0.13061335	-0.026462446	-1.715336	0.08328369	-0.2047784	-0.9808195	0.081837553	0.021099035	-1.7032206	0.10579025	-0.12125242	-0.980302	0.11669102	-0.061551928	NaN	NaN	NaN	-1.0125904	0.036445153	-0.023576606	-1.5327384	0.42498288	-0.24225877	-1.1486327	0.45162617	0.044334253	-1.5280127	0.40265413	-0.12197667	-1.1588749	0.44299912	-0.0853163	-1.416391	0.80207767	-0.30417194	-1.3209456	0.81891374	0.07494351	-1.3307695	0.90456233	-0.25182645	-1.2717647	0.91562478	-0.010034642	-1.4975226	0.91490466	-0.085404456	-1.3081052	1.3621572	-0.27570419	-1.349807	1.3759453	0.044818707	-1.4156919	1.4066098	-0.13221313	-1.3272187	1.007114	-0.33397349	-1.5214841	1.0645903	0.088776374	-1.1299037	0.92528982	-0.2075234	-1.4044489	0.85976849	0.15825103
